<?xml version="1.0" encoding="UTF-8" standalone="no"?>
<svg width="100px" height="30px" viewBox="0 0 100 30" version="1.1" xmlns="http://www.w3.org/2000/svg" xmlns:xlink="http://www.w3.org/1999/xlink">
    <!-- Generator: sketchtool 41 (35326) - http://www.bohemiancoding.com/sketch -->
    <title>326095A1-C0E0-4016-86A4-6146604003EE</title>
    <desc>Created with sketchtool.</desc>
    <defs>
        <rect id="path-1" x="0" y="0" width="100" height="44"></rect>
    </defs>
    <g id="Symbols" stroke="none" stroke-width="1" fill="none" fill-rule="evenodd">
        <g id="header-1280--path1" transform="translate(-68.000000, -17.000000)">
            <g id="1.-menu+logo-">
                <g id="header_logo" transform="translate(68.000000, 10.000000)">
                    <mask id="mask-2" fill="white">
                        <use xlink:href="#path-1"></use>
                    </mask>
                    <g id="Mask"></g>
                    <path d="M2.75501315,7.90841197 L12.2785699,7.90841197 C12.6515526,7.90841197 12.8935723,7.94957178 13.0069489,8.03174172 C13.1205499,8.11466003 13.1765273,8.34410726 13.1765273,8.72599546 C13.1765273,9.2178926 13.1266865,9.52958461 13.0270049,9.65815289 C12.9271737,9.78522445 12.7045365,9.8906684 12.359767,9.97186548 C11.9581221,10.064737 11.7161024,10.1721267 11.6287688,10.2954564 C11.5426325,10.4202829 11.500425,10.6858011 11.500425,11.096127 L11.500425,28.0555401 C11.500425,30.4176642 10.6746844,32.438087 9.02462502,34.1155363 C7.3733683,35.79553 4.8241542,36.6350405 1.37675821,36.6350405 C0.724637158,36.6350405 0.333095114,36.5974728 0.199512823,36.520242 C0.0672775798,36.4427868 0,36.2750044 0,36.0200381 L0,35.4337727 C0,35.1974406 0.029934407,35.0429791 0.089728385,34.9717352 C0.149746871,34.8988449 0.339231667,34.8539433 0.658482118,34.8328395 C2.92017624,34.6787522 4.052071,33.2818631 4.052071,30.6433696 L4.052071,11.8059466 C4.052071,11.0563142 3.96234262,10.5748941 3.78281101,10.3654281 C3.6030549,10.154615 3.27519831,9.99311891 2.79437689,9.88034103 C2.31527671,9.76801217 2.07535244,9.52105331 2.07535244,9.14170953 C2.07535244,8.5031338 2.10648422,8.14040362 2.16642787,8.04670893 C2.22554833,7.95518448 2.42214254,7.90841197 2.75501315,7.90841197 Z M14.9641726,22.1105145 C14.8443602,22.068756 14.7500668,22.0357533 14.6866059,22.0156224 C14.454689,21.9373439 14.3088336,21.85929 14.2488152,21.7843043 C14.1883477,21.7082709 14.1572159,21.5535848 14.1572159,21.3180759 C14.1572159,21.1893579 14.1527257,21.0809205 14.1440447,20.9956075 C14.1440447,20.7815016 14.1840072,20.6394629 14.2625101,20.5715866 C14.3399654,20.5040845 14.514483,20.4704832 14.783294,20.4704832 L19.10919,20.4704832 C19.3212004,20.4704832 19.4520138,20.49473 19.4981876,20.5447953 C19.5443614,20.5952348 19.5668122,20.7167685 19.5668122,20.9093964 L19.5668122,31.4774394 C19.5668122,32.4017391 19.8974378,32.8612322 20.5545728,32.8612322 C21.0559741,32.8612322 21.4350934,32.6980897 21.6957473,32.3680629 L21.6957473,22.4446573 C21.6957473,22.1871466 21.5338021,21.9863615 21.2095377,21.8430506 C21.051035,21.7714325 20.9562177,21.6945759 20.9231402,21.6133788 C20.8914097,21.531134 20.8751703,21.2543904 20.8751703,20.7815016 C20.8751703,20.5745052 21.0322511,20.4704832 21.3491068,20.4704832 L25.8950207,20.4704832 C26.0895944,20.4704832 26.2086585,20.4922604 26.2492944,20.5333454 C26.2903794,20.5783967 26.3129799,20.6917733 26.3129799,20.8782646 L26.3129799,33.1737475 C26.3129799,33.4082087 26.438854,33.5728479 26.6888063,33.6665426 C26.9926406,33.7948864 27.1472518,34.01004 27.1472518,34.3100575 C27.1472518,34.7394666 27.1259984,34.9822347 27.0842399,35.0389604 C27.0425562,35.0968086 26.896626,35.1261443 26.6459253,35.1261443 L22.4185884,35.1261443 C22.1497774,35.1261443 21.9639595,35.0875289 21.8616587,35.0133664 C21.7607049,34.9377821 21.7094422,34.7751634 21.7094422,34.5246124 L21.7094422,34.2562504 C21.7094422,33.9701524 21.7045779,33.8091801 21.6957473,33.7724356 C20.2217022,34.7751634 18.9744103,35.2758912 17.9540961,35.2758912 C17.0774669,35.2758912 16.3603134,35.0495122 15.8028599,34.6003465 C15.2427123,34.1490853 14.9641726,33.2796404 14.9641726,31.9932841 L14.9641726,22.1105145 Z M41.0461711,30.4583226 L41.0461711,33.3331482 C41.0461711,33.5264496 41.1677048,33.675523 41.4078536,33.7835862 C41.5923992,33.8620143 41.6871416,34.0030054 41.6871416,34.202593 L41.6871416,34.76985 C41.6871416,35.0350689 41.5107531,35.1683518 41.1572278,35.1683518 L36.1234579,35.1683518 C35.7892403,35.1683518 35.6219818,35.0082776 35.6219818,34.6864079 L35.6219818,34.1799177 C35.6219818,34.0590575 35.7574349,33.9200122 36.0263208,33.7623327 C36.2482844,33.6269544 36.3716141,33.5295927 36.3941398,33.472867 C36.417788,33.4156175 36.4284147,33.3269368 36.4284147,33.2048044 L36.4284147,20.3623451 C36.4284147,19.9047229 36.2482844,19.5759682 35.8865271,19.3747342 C35.7667146,19.3034903 35.6988383,19.2399545 35.6863407,19.1820314 C35.6719722,19.1232852 35.6651621,18.9853624 35.6651621,18.7633988 C35.6651621,18.2982929 35.6756392,18.0295568 35.6988383,17.9583129 C35.7224117,17.8866948 35.8640014,17.8512225 36.1234579,17.8512225 L40.5322722,17.8512225 C40.7629917,17.8512225 40.9077245,17.8781635 40.9624296,17.9317461 C41.0174341,17.9866009 41.0461711,18.1155434 41.0461711,18.3244107 L41.0461711,27.6221872 L43.5948614,23.1036633 C43.7612967,22.8193612 43.8447389,22.6272572 43.8447389,22.5275756 C43.8447389,22.2916925 43.6290615,22.1072965 43.1961351,21.9700473 C43.0034323,21.9139951 42.8757621,21.841479 42.8108044,21.7567646 C42.7471938,21.6699548 42.715613,21.4961856 42.715613,21.2315655 C42.715613,20.9025115 42.7572218,20.6997807 42.840215,20.6256182 C42.9244055,20.5494352 43.0814863,20.5126907 43.313029,20.5126907 L47.1505451,20.5126907 C47.3643516,20.5345428 47.4709929,20.7228302 47.4709929,21.0814444 C47.4709929,21.4024909 47.4305066,21.621985 47.3537249,21.7343138 C47.2739497,21.8491871 47.1019017,21.9612915 46.8324172,22.0686811 C46.4134103,22.2238162 46.1220737,22.4364253 45.9551145,22.7009707 L44.9859881,24.2822557 L47.9455281,33.1073679 C48.0291199,33.3729609 48.2224214,33.5825018 48.5291742,33.7409296 C48.7340004,33.8421079 48.833682,33.9940999 48.833682,34.202593 L48.833682,34.76985 C48.833682,35.0350689 48.6459932,35.1683518 48.2648534,35.1683518 L44.5232022,35.1683518 C44.0505379,35.1683518 43.7437851,34.931421 43.6059371,34.4595051 L42.0202367,28.9680381 L41.0461711,30.4583226 Z M67.5667087,23.3241302 C67.6776905,23.1520073 67.8123954,22.8525884 67.9689523,22.4235535 C68.3211306,21.493267 68.6679207,20.9101448 69.0060298,20.6744113 C69.3438396,20.4394262 69.7168223,20.3208111 70.1264747,20.3208111 C70.682207,20.3208111 71.1010641,20.5240657 71.3836449,20.931922 C71.667498,21.3397783 71.8083393,21.8518812 71.8083393,22.4667339 C71.8083393,23.7905082 71.3257219,24.4502626 70.361834,24.4502626 C69.8801894,24.4502626 69.507506,24.2321904 69.2491721,23.7955222 C69.0908939,23.5460938 68.9284997,23.4202945 68.7628128,23.4202945 C68.3462755,23.4202945 68.1365101,23.7743437 68.1365101,24.4834898 L68.1365101,33.0558807 C68.1365101,33.3264878 68.2989043,33.5274973 68.6228694,33.6571133 C68.9478074,33.7781231 69.1106506,33.9750167 69.1106506,34.2457734 L69.1106506,34.728316 C69.1106506,34.9005137 69.084458,35.010373 69.0340933,35.056472 C68.9829803,35.102571 68.8376488,35.1268178 68.5956291,35.1268178 L63.3535906,35.1268178 C62.9920578,35.1268178 62.8105804,34.9935349 62.8105804,34.728316 L62.8105804,34.1383837 C62.8105804,33.9388709 62.8884099,33.8055131 63.0475113,33.7419773 C63.3624961,33.6206682 63.519502,33.4344761 63.519502,33.1837755 L63.519502,22.3786519 C63.519502,22.1379793 63.4085951,21.9623392 63.1864818,21.8549495 C62.9445369,21.7463624 62.8047432,21.6626957 62.7686723,21.6022282 C62.7312543,21.5418356 62.7126201,21.3574396 62.7126201,21.0505371 C62.7126201,20.7936251 62.7611887,20.6314554 62.8592239,20.5666474 C62.9571842,20.5028871 63.1204016,20.4711567 63.3535906,20.4711567 L67.1078142,20.4711567 C67.282257,20.4711567 67.4045391,20.5079012 67.4706193,20.5840842 C67.5331073,20.6582467 67.5667087,20.8397241 67.5667087,21.1240261 L67.5667087,23.3241302 Z M55.1207306,27.5845447 L55.1207306,31.9721055 C55.1207306,32.551486 55.2673344,33.0048426 55.5585213,33.3353933 C55.8523275,33.6645221 56.2250857,33.8273652 56.6798642,33.8273652 C57.3825744,33.8273652 57.9463141,33.5972445 58.3678654,33.1346082 C58.7908386,32.6754144 59.015197,32.0443971 59.042587,31.2432775 C59.0512679,30.8135691 59.1048505,30.5565823 59.2032599,30.470446 C59.2996487,30.3843846 59.6361863,30.3427009 60.2112262,30.3427009 C60.7112805,30.3427009 61.0297826,30.3806428 61.1635894,30.4580981 C61.2987432,30.5378732 61.3660208,30.7349913 61.3660208,31.0490781 C61.3660208,32.1511881 60.902711,33.1312406 59.9749689,33.9888614 C59.0475261,34.8475298 57.8190929,35.2765647 56.2898937,35.2765647 C54.5376832,35.2765647 53.0483716,34.6629094 51.8257008,33.4362722 C50.6016829,32.2103834 49.9904971,30.3632808 49.9904971,27.8938419 C49.9904971,25.4268726 50.554162,23.547366 51.6865806,22.2565944 C52.8178767,20.9655982 54.3007524,20.3208111 56.1366296,20.3208111 C57.7131251,20.3208111 58.9769558,20.8640458 59.932013,21.9508893 C60.8884173,23.0384063 61.3660208,24.5824978 61.3660208,26.5855587 L61.3660208,27.5845447 L55.1207306,27.5845447 Z M56.9996385,26.2425103 L56.9996385,22.6918407 C56.9996385,22.019439 56.68862,21.6828266 56.0668824,21.6828266 C55.436838,21.6828266 55.1207306,22.019439 55.1207306,22.6918407 L55.1207306,26.2425103 L56.9996385,26.2425103 Z M32.1063353,17.4770425 C33.1540396,17.4770425 33.6790142,17.7482482 33.6790142,18.2920815 C33.6790142,18.7206674 33.3285572,19.0834724 32.6288404,19.3816191 C31.9291985,19.6777452 31.1342155,19.8262199 30.2442655,19.8262199 C29.094934,19.8262199 28.5193702,19.5279983 28.5193702,18.9355964 C28.5193702,18.4636057 28.9222125,18.1031206 29.7291692,17.8518212 C30.5356022,17.6017941 31.3293878,17.4770425 32.1063353,17.4770425 Z M28.213216,21.585914 L28.213216,20.8757202 C28.213216,20.6404357 28.3984352,20.5239161 28.7700708,20.5239161 L33.2062751,20.5239161 C33.5212599,20.5239161 33.6790142,20.6404357 33.6790142,20.8757202 L33.6790142,33.2160298 C33.6790142,33.3881526 33.6915118,33.4991345 33.7189767,33.5491249 C33.7463667,33.5976935 33.8287611,33.6437925 33.9645885,33.6867484 C34.2932683,33.7883757 34.4565605,34.0086181 34.4565605,34.3521154 C34.4565605,34.7462767 34.4341845,34.9832075 34.387412,35.0618602 C34.3424355,35.1391658 34.192988,35.1796521 33.9445324,35.1796521 L28.5604551,35.1796521 C28.4315127,35.1652836 28.3479209,35.1185859 28.3105028,35.0441989 C28.27301,34.9695125 28.2550494,34.7711971 28.2550494,34.4501506 C28.2550494,34.0635477 28.3759844,33.8383661 28.6165822,33.773633 C28.9136063,33.6961029 29.0619313,33.5520435 29.0619313,33.3443736 L29.0619313,22.6472384 C29.0619313,22.2331707 28.8624185,21.9812727 28.4639167,21.8965583 C28.2961343,21.8604125 28.213216,21.7580368 28.213216,21.585914 Z M98.4130818,19.9695309 C99.22625,18.9723409 99.715004,17.7014757 99.715004,16.3185061 C99.715004,13.1274983 97.1185684,10.5307633 93.9280845,10.5307633 C92.1526748,10.5307633 90.5624094,11.3377201 89.5000373,12.6011017 C89.4008047,9.4970534 86.8508423,7 83.7222477,7 C80.5320631,7 77.9359269,9.59606145 77.9359269,12.7871441 C77.9359269,12.8880979 77.9459549,12.9877794 77.9508941,13.0882094 C75.8213603,13.9369246 74.2573624,15.3581355 73.5678982,17.2020949 C72.1583618,20.9712858 74.6714301,25.5662921 79.3845276,28.6362152 C78.9229391,28.9992447 78.5078237,29.4288783 78.1517539,29.9158363 C77.7195759,29.5730125 77.176491,29.1103014 76.635202,28.4242048 C75.1551701,26.5446982 74.2585598,23.7060932 73.4298257,24.3582891 C72.6035613,25.0107843 73.1336996,27.0611415 74.6141057,28.9406481 C75.5103419,30.0782304 76.5498141,30.8882555 77.4145443,31.2073563 C77.0187366,32.1034427 76.7890649,33.1031023 76.7890649,34.1563444 C76.7890649,34.3334812 76.7965485,34.6715155 76.8085971,34.8422165 L76.8659215,36.0583018 L88.7952317,36.0583018 L88.8571211,34.8683342 C88.8633325,34.7911035 88.8671491,34.648915 88.8708909,34.5018623 C89.6458179,34.7661831 90.6891068,34.8847982 91.8228724,34.7935731 C94.1114327,34.6077552 95.9036805,33.6419964 95.8219596,32.6335811 C95.7413612,31.6239684 93.1548039,32.8468637 90.8625018,33.0314094 C90.0083984,33.0999591 89.3158659,33.0150951 88.7878229,32.9328503 C88.7317707,32.5625617 88.6486279,32.204621 88.5389932,31.8578309 C89.1162782,31.915305 89.6888486,31.9439672 90.2513161,31.9439672 C94.8708686,31.9439672 98.4573099,30.0281651 99.6095601,26.9426013 C100.432232,24.7443681 99.918109,22.2643773 98.4130818,19.9695309 Z M93.9280845,13.6873465 C95.379978,13.6873465 96.5603665,14.865939 96.5603665,16.3185061 C96.5603665,16.7304783 96.45612,17.1159587 96.2866912,17.4633475 C95.1018126,16.3446987 93.6684783,15.3313442 92.0396724,14.4932556 C92.5180991,13.9979908 93.1867589,13.6873465 93.9280845,13.6873465 Z M83.7222477,10.1540388 C85.0855355,10.1540388 86.1954284,11.2000218 86.3262418,12.5294837 C85.1776586,12.3145546 84.0341643,12.2025999 82.9267409,12.2025999 C82.3118133,12.2025999 81.7155199,12.2393444 81.1398064,12.3055743 C81.3670086,11.0833525 82.4364153,10.1540388 83.7222477,10.1540388 Z M91.6239583,26.6035193 C89.597848,26.604567 87.3990161,26.2330062 85.3573399,25.5824567 C80.7453458,24.1140992 76.0282819,20.8925583 76.6337053,16.2566167 L77.5735709,16.3789736 C77.0423848,20.4410726 81.5896457,23.3893872 85.644336,24.681431 C90.3934297,26.1929689 96.2079637,26.0496579 97.7207738,23.190473 L98.556318,23.6326042 C97.4495681,25.7265908 94.7375108,26.6035193 91.6239583,26.6035193 Z" fill="#FFFFFF" mask="url(#mask-2)"></path>
                </g>
            </g>
        </g>
    </g>
</svg>