<?xml version="1.0" encoding="UTF-8" standalone="no"?>
<svg width="20px" height="20px" viewBox="0 0 20 20" version="1.1" xmlns="http://www.w3.org/2000/svg" xmlns:xlink="http://www.w3.org/1999/xlink">
    <!-- Generator: sketchtool 41 (35326) - http://www.bohemiancoding.com/sketch -->
    <title>0961F111-D5BE-412B-8FE5-15E758A3FFB1</title>
    <desc>Created with sketchtool.</desc>
    <defs>
        <rect id="path-1" x="0" y="0" width="24" height="24"></rect>
    </defs>
    <g id="Symbols" stroke="none" stroke-width="1" fill="none" fill-rule="evenodd">
        <g id="側選單---主本" transform="translate(-26.000000, -270.000000)">
            <g id="側選單_2.1">
                <g id="3.1-手機通訊錄" transform="translate(0.000000, 256.000000)">
                    <g id="drawer_ic_contact" transform="translate(24.000000, 12.000000)">
                        <mask id="mask-2" fill="white">
                            <use xlink:href="#path-1"></use>
                        </mask>
                        <g></g>
                        <path d="M20.9099952,2 L6.62695852,2 C5.01620845,2 5.15833346,3.02307478 5.15833346,4.17625799 L5.15833346,5.33611343 L2,5.33611343 L2,7.56018905 L5.15833346,7.56018905 L5.15833346,16.4564915 L2,16.4564915 L2,18.6805671 L5.15833346,18.6805671 L5.15833346,19.9038087 C5.15833346,21.0670003 5.53417514,21.9899917 6.62590574,21.9899917 L20.0214507,22 C21.1131813,22 22.0027786,21.0670003 22.0027786,19.9038087 L22.0027786,4.17625799 C22.0027786,3.02307478 21.4837591,2 20.9099952,2 Z M13.6489866,14.7262305 C12.8783532,14.7262305 12.2487921,14.0601199 12.2487921,13.2472202 C12.2487921,12.4332086 12.8783532,11.7682099 13.6489866,11.7682099 C14.4196199,11.7682099 15.0491811,12.4332086 15.0491811,13.2472202 C15.0491811,14.0601199 14.4196199,14.7262305 13.6489866,14.7262305 Z M16.8325867,9.29170175 L16.3493617,9.29170175 C16.3346228,9.29170175 16.324095,9.27946933 16.324095,9.26501284 L16.324095,8.30754828 C16.324095,6.8196417 15.2955311,5.4785241 13.8911255,5.34730364 C12.3056421,5.20051465 10.9738781,6.51716741 10.9738781,8.16187133 L11.9908615,8.16187133 C11.9908615,7.1432447 12.8172921,6.32478487 13.8005866,6.41708401 C14.6764977,6.49937481 15.3071116,7.357868 15.3071116,8.2875316 L15.3071116,9.26501284 C15.3071116,9.27946933 15.2955311,9.29170175 15.281845,9.29170175 L10.4653865,9.29170175 C9.86214476,9.29170175 9.36944474,9.81213544 9.36944474,10.4493331 L9.36944474,16.0451074 C9.36944474,16.682305 9.86214476,17.2027387 10.4653865,17.2027387 L16.8325867,17.2027387 C17.4358284,17.2027387 17.9285284,16.682305 17.9285284,16.0451074 L17.9285284,10.4493331 C17.9285284,9.81213544 17.4358284,9.29170175 16.8325867,9.29170175 Z" fill="#FFFFFF" mask="url(#mask-2)"></path>
                    </g>
                </g>
            </g>
        </g>
    </g>
</svg>