<?xml version="1.0" encoding="UTF-8" standalone="no"?>
<svg width="20px" height="22px" viewBox="0 0 20 22" version="1.1" xmlns="http://www.w3.org/2000/svg" xmlns:xlink="http://www.w3.org/1999/xlink">
    <!-- Generator: sketchtool 41 (35326) - http://www.bohemiancoding.com/sketch -->
    <title>0DAF721D-959F-41F4-A4A9-4D3A968484D6</title>
    <desc>Created with sketchtool.</desc>
    <defs>
        <rect id="path-1" x="0" y="0" width="24" height="24"></rect>
    </defs>
    <g id="Symbols" stroke="none" stroke-width="1" fill="none" fill-rule="evenodd">
        <g id="側選單---主本" transform="translate(-26.000000, -562.000000)">
            <g id="側選單_2.1">
                <g id="4.4-企業報表" transform="translate(0.000000, 549.000000)">
                    <g id="drawer_ic_report" transform="translate(24.000000, 12.000000)">
                        <mask id="mask-2" fill="white">
                            <use xlink:href="#path-1"></use>
                        </mask>
                        <g></g>
                        <path d="M13.35,12.0745041 L9.75125,8.11514272 L5.05625,13.2891872 L3.7075,11.8044267 L9.75125,5.14562167 L13.35,9.10498307 L19.025,2.7668118 L20.29375,4.16243348 L13.35,12.0745041 Z M15.6175,19.9453314 L18.3825,19.9453314 L18.3825,11.3893324 L15.6175,11.3893324 L15.6175,19.9453314 Z M10.6175,19.9453314 L13.3825,19.9453314 L13.3825,13.8333333 L10.6175,13.8333333 L10.6175,19.9453314 Z M5.6175,19.9453314 L8.3825,19.9453314 L8.3825,15.6679971 L5.6175,15.6679971 L5.6175,19.9453314 Z M19.7775,1 L4.2225,1 C3,1 2,2.10026609 2,3.44400097 L2,20.555999 C2,21.9010643 3,23 4.2225,23 L19.7775,23 C21,23 22,21.9010643 22,21.1666667 L22,4.0546686 C22,2.10026609 21,1 19.7775,1 L19.7775,1 Z" fill="#FFFFFF" mask="url(#mask-2)"></path>
                    </g>
                </g>
            </g>
        </g>
    </g>
</svg>