<?xml version="1.0" encoding="UTF-8" standalone="no"?>
<svg width="24px" height="24px" viewBox="0 0 24 24" version="1.1" xmlns="http://www.w3.org/2000/svg" xmlns:xlink="http://www.w3.org/1999/xlink">
    <!-- Generator: Sketch 41.2 (35397) - http://www.bohemiancoding.com/sketch -->
    <title>drawer_ic_group</title>
    <desc>Created with Sketch.</desc>
    <defs>
        <rect id="path-1" x="0" y="0" width="256" height="48"></rect>
        <rect id="path-3" x="0" y="0" width="24" height="24"></rect>
    </defs>
    <g id="Symbols" stroke="none" stroke-width="1" fill="none" fill-rule="evenodd">
        <g id="側選單---主本" transform="translate(-24.000000, -513.000000)">
            <g id="側選單_2.1">
                <g id="4.3-企業專屬社團" transform="translate(0.000000, 501.000000)">
                    <mask id="mask-2" fill="white">
                        <use xlink:href="#path-1"></use>
                    </mask>
                    <g id="Mask"></g>
                    <g id="drawer_ic_group" mask="url(#mask-2)">
                        <g transform="translate(24.000000, 12.000000)">
                            <mask id="mask-4" fill="white">
                                <use xlink:href="#path-3"></use>
                            </mask>
                            <g id="drawer_ic_group" stroke="none" fill="none"></g>
                            <path d="M16.0001475,13.000295 C15.7102896,13.000295 15.3804139,13.019763 15.0299887,13.0500467 C16.1905019,13.8904184 17.0005899,15.020648 17.0005899,16.5002212 L17.0005899,18.999705 L23,18.999705 L23,16.5002212 C23,14.1705423 18.3298265,13.000295 16.0001475,13.000295 M7.99985251,13.000295 C5.67017354,13.000295 1,14.1705423 1,16.5002212 L1,18.999705 L14.999705,18.999705 L14.999705,16.5002212 C14.999705,14.1705423 10.330613,13.000295 7.99985251,13.000295 M7.99985251,11.0004916 C9.66004621,11.0004916 10.9903643,9.66043951 10.9903643,8.00024581 C10.9903643,6.34005211 9.66004621,5 7.99985251,5 C6.34074038,5 5.00068827,6.34005211 5.00068827,8.00024581 C5.00068827,9.66043951 6.34074038,11.0004916 7.99985251,11.0004916 M16.0001475,11.0004916 C17.6603412,11.0004916 18.9895777,9.66043951 18.9895777,8.00024581 C18.9895777,6.34005211 17.6603412,5 16.0001475,5 C14.3399538,5 12.9999017,6.34005211 12.9999017,8.00024581 C12.9999017,9.66043951 14.3399538,11.0004916 16.0001475,11.0004916" id="drawer_ic_group" stroke="none" fill="#FFFFFF" fill-rule="evenodd" mask="url(#mask-4)"></path>
                        </g>
                    </g>
                </g>
            </g>
        </g>
    </g>
</svg>