<?xml version="1.0" encoding="UTF-8" standalone="no"?>
<svg width="20px" height="20px" viewBox="0 0 20 20" version="1.1" xmlns="http://www.w3.org/2000/svg" xmlns:xlink="http://www.w3.org/1999/xlink">
    <!-- Generator: sketchtool 41 (35326) - http://www.bohemiancoding.com/sketch -->
    <title>A1AC6D73-D6FC-4F23-A414-DB6610F1E8BC</title>
    <desc>Created with sketchtool.</desc>
    <defs>
        <rect id="path-1" x="0" y="0" width="24" height="24"></rect>
    </defs>
    <g id="Symbols" stroke="none" stroke-width="1" fill="none" fill-rule="evenodd">
        <g id="側選單---主本" transform="translate(-26.000000, -419.000000)">
            <g id="側選單_2.1">
                <g id="4.1-企業聊天室" transform="translate(0.000000, 405.000000)">
                    <g id="drawer_ic_file" transform="translate(24.000000, 12.000000)">
                        <mask id="mask-2" fill="white">
                            <use xlink:href="#path-1"></use>
                        </mask>
                        <g></g>
                        <path d="M17,12 L17,3 C17,2.45 16.55,2 16,2 L3,2 C2.45,2 2,2.45 2,3 L2,17 L6,13 L16,13 C16.55,13 17,12.55 17,12 M21,6 L19,6 L19,15 L6,15 L6,17 C6,17.55 6.45,18 7,18 L18,18 L22,22 L22,7 C22,6.45 21.55,6 21,6" fill="#FFFFFF" mask="url(#mask-2)"></path>
                    </g>
                </g>
            </g>
        </g>
    </g>
</svg>