<?xml version="1.0" encoding="UTF-8" standalone="no"?>
<svg width="16px" height="20px" viewBox="0 0 16 20" version="1.1" xmlns="http://www.w3.org/2000/svg" xmlns:xlink="http://www.w3.org/1999/xlink">
    <!-- Generator: sketchtool 41 (35326) - http://www.bohemiancoding.com/sketch -->
    <title>2FB37DC6-EEDF-4678-9A54-F8C3AB053FDF</title>
    <desc>Created with sketchtool.</desc>
    <defs>
        <rect id="path-1" x="0" y="0" width="24" height="24"></rect>
    </defs>
    <g id="Symbols" stroke="none" stroke-width="1" fill="none" fill-rule="evenodd">
        <g id="側選單---主本" transform="translate(-28.000000, -168.000000)">
            <g id="側選單_2.1">
                <g id="2.-2-共用設定" transform="translate(0.000000, 156.000000)">
                    <g id="drawer_ic_share" transform="translate(24.000000, 10.000000)">
                        <mask id="mask-2" fill="white">
                            <use xlink:href="#path-1"></use>
                        </mask>
                        <g></g>
                        <path d="M12,17.8260564 C10.56,17.8260564 9.38215385,16.704331 9.38215385,15.3329426 C9.38215385,13.9627264 10.56,12.841001 12,12.841001 C13.44,12.841001 14.6178462,13.9627264 14.6178462,15.3329426 C14.6178462,16.704331 13.44,17.8260564 12,17.8260564 M18,8.66705738 L17.0006154,8.66705738 L17.0006154,6.76235129 C17.0006154,4.13327082 14.7606154,2 12,2 C9.24061538,2 7.00061538,4.13327082 7.00061538,6.76235129 L8.89969231,6.76235129 C8.89969231,5.133095 10.2904615,3.80976382 12,3.80976382 C13.7095385,3.80976382 15.1003077,5.133095 15.1003077,6.76235129 L15.1003077,8.66705738 L6,8.66705738 C4.89969231,8.66705738 4,9.52388208 4,10.5717635 L4,20.0952939 C4,21.1431753 4.89969231,22 6,22 L18,22 C19.1003077,22 20,21.1431753 20,20.0952939 L20,10.5717635 C20,9.52388208 19.1003077,8.66705738 18,8.66705738" fill="#FFFFFF" mask="url(#mask-2)"></path>
                    </g>
                </g>
            </g>
        </g>
    </g>
</svg>