<?xml version="1.0" encoding="UTF-8" standalone="no"?>
<svg width="24px" height="24px" viewBox="0 0 24 24" version="1.1" xmlns="http://www.w3.org/2000/svg" xmlns:xlink="http://www.w3.org/1999/xlink">
    <!-- Generator: Sketch 41.2 (35397) - http://www.bohemiancoding.com/sketch -->
    <title>drawer_ic_crop</title>
    <desc>Created with Sketch.</desc>
    <defs>
        <rect id="path-1" x="0" y="0" width="256" height="48"></rect>
        <polygon id="path-3" points="0 0 24 0 24 24 0 24"></polygon>
    </defs>
    <g id="Symbols" stroke="none" stroke-width="1" fill="none" fill-rule="evenodd">
        <g id="側選單---主本" transform="translate(-24.000000, -20.000000)">
            <g id="側選單_2.1">
                <g id="1.-企業基本資料" transform="translate(0.000000, 8.000000)">
                    <mask id="mask-2" fill="white">
                        <use xlink:href="#path-1"></use>
                    </mask>
                    <g id="Mask"></g>
                    <g id="drawer_ic_crop" mask="url(#mask-2)">
                        <g transform="translate(24.000000, 12.000000)">
                            <mask id="mask-4" fill="white">
                                <use xlink:href="#path-3"></use>
                            </mask>
                            <g id="drawer_ic_crop" stroke="none" fill="none"></g>
                            <path d="M12,7 L12,3 L2,3 L2,21 L22,21 L22,7 L12,7 L12,7 Z M6,19 L4,19 L4,17 L6,17 L6,19 L6,19 Z M6,15 L4,15 L4,13 L6,13 L6,15 L6,15 Z M6,11 L4,11 L4,9 L6,9 L6,11 L6,11 Z M6,7 L4,7 L4,5 L6,5 L6,7 L6,7 Z M10,19 L8,19 L8,17 L10,17 L10,19 L10,19 Z M10,15 L8,15 L8,13 L10,13 L10,15 L10,15 Z M10,11 L8,11 L8,9 L10,9 L10,11 L10,11 Z M10,7 L8,7 L8,5 L10,5 L10,7 L10,7 Z M20,19 L12,19 L12,17 L14,17 L14,15 L12,15 L12,13 L14,13 L14,11 L12,11 L12,9 L20,9 L20,19 L20,19 Z M18,11 L16,11 L16,13 L18,13 L18,11 L18,11 Z M18,15 L16,15 L16,17 L18,17 L18,15 L18,15 Z" id="drawer_ic_crop" stroke="none" fill="#FFFFFF" fill-rule="evenodd" mask="url(#mask-4)"></path>
                        </g>
                    </g>
                </g>
            </g>
        </g>
    </g>
</svg>