<?xml version="1.0" encoding="UTF-8" standalone="no"?>
<svg width="18px" height="22px" viewBox="0 0 18 22" version="1.1" xmlns="http://www.w3.org/2000/svg" xmlns:xlink="http://www.w3.org/1999/xlink">
    <!-- Generator: sketchtool 41 (35326) - http://www.bohemiancoding.com/sketch -->
    <title>AA09429F-0397-41D6-9F23-61BFF5507E69</title>
    <desc>Created with sketchtool.</desc>
    <defs>
        <polygon id="path-1" points="0 0 24 0 24 24 0 24"></polygon>
    </defs>
    <g id="Symbols" stroke="none" stroke-width="1" fill="none" fill-rule="evenodd">
        <g id="側選單---主本" transform="translate(-27.000000, -317.000000)">
            <g id="側選單_2.1">
                <g id="3.1-手機通訊錄" transform="translate(0.000000, 304.000000)">
                    <g id="drawer_ic_phone" transform="translate(24.000000, 12.000000)">
                        <mask id="mask-2" fill="white">
                            <use xlink:href="#path-1"></use>
                        </mask>
                        <g id="Mask"></g>
                        <path d="M19.7614288,12.5 L19.7614288,11.5 L20.8589033,10.7 C20.9586737,10.6 20.9586737,10.5 20.9586737,10.4 L19.9609696,8.7 C19.8611992,8.6 19.7614288,8.5 19.6616584,8.6 L18.3646431,9 C18.0653319,8.8 17.7660206,8.6 17.4667094,8.5 L17.2671686,7.2 C17.2671686,7.1 17.1673982,7 16.9678574,7 L14.9724492,7 C14.8726788,7 14.7729083,7.1 14.6731379,7.2 L14.4735971,8.5 C14.1742859,8.6 13.8749747,8.8 13.5756634,9 L12.2786481,8.5 C12.1788777,8.5 12.0791073,8.5 11.9793369,8.6 L10.9816328,10.3 C10.8818624,10.4 10.9816328,10.5 11.0814032,10.6 L12.1788777,11.4 L12.1788777,12.4 L11.0814032,13.2 C10.9816328,13.4 10.9816328,13.5 10.9816328,13.6 L11.9793369,15.3 C12.0791073,15.4 12.1788777,15.5 12.2786481,15.4 L13.6754338,15 C13.9747451,15.2 14.2740563,15.4 14.5733675,15.5 L14.7729083,16.8 C14.6731379,16.9 14.8726788,17 14.9724492,17 L16.9678574,17 C17.0676278,17 17.1673982,16.9 17.2671686,16.8 L17.4667094,15.5 C17.7660206,15.4 18.0653319,15.2 18.3646431,15 L19.6616584,15.5 C19.7614288,15.5 19.8611992,15.5 19.9609696,15.4 L20.9586737,13.7 C21.0584442,13.6 20.9586737,13.5 20.8589033,13.4 L19.7614288,12.5 L19.7614288,12.5 Z M15.9701533,14 C14.8726788,14 13.9747451,13.1 13.9747451,12 C13.9747451,10.9 14.8726788,10 15.9701533,10 C17.0676278,10 17.9655615,10.9 17.9655615,12 C17.9655615,13.1 17.0676278,14 15.9701533,14 L15.9701533,14 Z M4.99540819,23 L14.9724492,23 C16.0699237,23 16.9678574,22.1 16.9678574,21 L16.9678574,18 L14.9724492,18 L14.9724492,20 L4.99540819,20 L4.99540819,4 L14.9724492,4 L14.9724492,6 L16.9678574,6 L16.9678574,3 C16.9678574,1.9 16.0699237,1 14.9724492,1 L4.99540819,1 C3.89793369,1 3,1.9 3,3 L3,21 C3,22.1 3.89793369,23 4.99540819,23 L4.99540819,23 Z" fill="#FFFFFF" mask="url(#mask-2)"></path>
                    </g>
                </g>
            </g>
        </g>
    </g>
</svg>