<?xml version="1.0" encoding="UTF-8" standalone="no"?>
<svg width="22px" height="18px" viewBox="0 0 22 18" version="1.1" xmlns="http://www.w3.org/2000/svg" xmlns:xlink="http://www.w3.org/1999/xlink">
    <!-- Generator: sketchtool 41 (35326) - http://www.bohemiancoding.com/sketch -->
    <title>D5F7551D-76DE-48A6-9CBE-2614E5FA4207</title>
    <desc>Created with sketchtool.</desc>
    <defs>
        <path d="M1.07866835,5 C1.07866835,3.8954305 1.96516097,3 3.08215327,3 L20.9965151,3 C22.1030092,3 23,3.88772964 23,5 C23,6.1045695 22.1135074,7 20.9965151,7 L3.08215327,7 C1.9756591,7 1.07866835,6.11227036 1.07866835,5 Z M1,12.044607 C1,10.9400375 1.88649262,10.044607 3.00348492,10.044607 L20.9178467,10.044607 C22.0243409,10.044607 22.9213316,10.9323366 22.9213316,12.044607 C22.9213316,13.1491765 22.034839,14.044607 20.9178467,14.044607 L3.00348492,14.044607 C1.89699075,14.044607 1,13.1568773 1,12.044607 Z M1.07866835,19 C1.07866835,17.8954305 1.96516097,17 3.08215327,17 L20.9965151,17 C22.1030092,17 23,17.8877296 23,19 C23,20.1045695 22.1135074,21 20.9965151,21 L3.08215327,21 C1.9756591,21 1.07866835,20.1122704 1.07866835,19 Z" id="path-1"></path>
    </defs>
    <g id="Symbols" stroke="none" stroke-width="1" fill="none" fill-rule="evenodd">
        <g id="header-1280--path1" transform="translate(-25.000000, -23.000000)">
            <g id="1.-menu+logo-">
                <g id="header_ic_menu" transform="translate(24.000000, 20.000000)">
                    <rect x="0" y="0" width="24" height="24"></rect>
                    <mask id="mask-2" fill="white">
                        <use xlink:href="#path-1"></use>
                    </mask>
                    <use fill="#FFFFFF" xlink:href="#path-1"></use>
                </g>
            </g>
        </g>
    </g>
</svg>