<?xml version="1.0" encoding="UTF-8" standalone="no"?>
<svg width="16px" height="22px" viewBox="0 0 16 22" version="1.1" xmlns="http://www.w3.org/2000/svg" xmlns:xlink="http://www.w3.org/1999/xlink">
    <!-- Generator: sketchtool 41 (35326) - http://www.bohemiancoding.com/sketch -->
    <title>B79CEAFA-41C3-49F9-A9A4-E2FE7052CEDD</title>
    <desc>Created with sketchtool.</desc>
    <defs>
        <rect id="path-1" x="0" y="0" width="24" height="24"></rect>
    </defs>
    <g id="Symbols" stroke="none" stroke-width="1" fill="none" fill-rule="evenodd">
        <g id="header-1280-path2" transform="translate(-369.000000, -21.000000)">
            <g id="header_ic_location" transform="translate(365.000000, 20.000000)">
                <mask id="mask-2" fill="white">
                    <use xlink:href="#path-1"></use>
                </mask>
                <g id="Mask"></g>
                <path d="M12,7.18749883 C10.8953333,7.18749883 10,8.11081116 10,9.24999844 C10,10.3891857 10.8953333,11.3124981 12,11.3124981 C13.1046667,11.3124981 14,10.3891857 14,9.24999844 C14,8.11081116 13.1046667,7.18749883 12,7.18749883 L12,7.18749883 Z M12,12.6874978 C10.1593333,12.6874978 8.66666667,11.1488731 8.66666667,9.24999844 C8.66666667,7.3511238 10.1593333,5.81249909 12,5.81249909 C13.8406667,5.81249909 15.3333333,7.3511238 15.3333333,9.24999844 C15.3333333,11.1488731 13.8406667,12.6874978 12,12.6874978 L12,12.6874978 Z M12,1 C7.582,1 4,4.6939368 4,9.24999844 C4,12.6998728 10.67,23.0075583 12,22.9999958 C13.3093333,23.0075583 20,12.6531228 20,9.24999844 C20,4.6939368 16.418,1 12,1 L12,1 Z" fill="#F8D503" mask="url(#mask-2)"></path>
            </g>
        </g>
    </g>
</svg>