<?xml version="1.0" encoding="UTF-8" standalone="no"?>
<svg width="22px" height="22px" viewBox="0 0 22 22" version="1.1" xmlns="http://www.w3.org/2000/svg" xmlns:xlink="http://www.w3.org/1999/xlink">
    <!-- Generator: sketchtool 41 (35326) - http://www.bohemiancoding.com/sketch -->
    <title>80808130-3936-436D-A43C-D77869300255</title>
    <desc>Created with sketchtool.</desc>
    <defs>
        <rect id="path-1" x="0" y="0" width="24" height="24"></rect>
        <path d="M1,12 C1,18.05 5.95,23 12,23 C18.05,23 23,18.05 23,12 C23,5.95 18.05,1 12,1 C5.95,1 1,5.95 1,12 Z M19.59,7.6 L16.4,7.6 C16.07,6.17 15.52,4.96 14.86,3.64 C16.84,4.41 18.6,5.73 19.59,7.6 L19.59,7.6 Z M12,3.2 C12.88,4.52 13.65,5.95 14.09,7.6 L9.91,7.6 C10.35,6.06 11.12,4.52 12,3.2 L12,3.2 Z M3.53,14.2 C3.31,13.54 3.2,12.77 3.2,12 C3.2,11.23 3.31,10.46 3.53,9.8 L7.27,9.8 C7.16,10.57 7.16,11.23 7.16,12 C7.16,12.77 7.27,13.43 7.27,14.2 L3.53,14.2 L3.53,14.2 Z M4.41,16.4 L7.6,16.4 C7.93,17.83 8.48,19.04 9.14,20.36 C7.16,19.59 5.4,18.27 4.41,16.4 L4.41,16.4 Z M7.6,7.6 L4.41,7.6 C5.51,5.73 7.16,4.41 9.14,3.64 C8.48,4.96 7.93,6.17 7.6,7.6 L7.6,7.6 Z M12,20.8 C11.12,19.48 10.35,18.05 9.91,16.4 L14.09,16.4 C13.65,17.94 12.88,19.48 12,20.8 L12,20.8 Z M14.53,14.2 L9.47,14.2 C9.36,13.43 9.25,12.77 9.25,12 C9.25,11.23 9.36,10.57 9.47,9.8 L14.64,9.8 C14.75,10.57 14.86,11.23 14.86,12 C14.86,12.77 14.64,13.43 14.53,14.2 L14.53,14.2 Z M14.86,20.36 C15.52,19.15 16.07,17.83 16.4,16.4 L19.59,16.4 C18.6,18.27 16.84,19.59 14.86,20.36 L14.86,20.36 Z M16.84,14.2 C16.95,13.43 16.95,12.77 16.95,12 C16.95,11.23 16.84,10.57 16.84,9.8 L20.58,9.8 C20.8,10.46 20.91,11.23 20.91,12 C20.91,12.77 20.8,13.54 20.58,14.2 L16.84,14.2 L16.84,14.2 Z" id="path-3"></path>
    </defs>
    <g id="Symbols" stroke="none" stroke-width="1" fill="none" fill-rule="evenodd">
        <g id="header-1280-path2" transform="translate(-1001.000000, -21.000000)">
            <g id="4.-language" transform="translate(1000.000000, 0.000000)">
                <g id="header_ic-language" transform="translate(0.000000, 20.000000)">
                    <mask id="mask-2" fill="white">
                        <use xlink:href="#path-1"></use>
                    </mask>
                    <g id="Mask"></g>
                    <g mask="url(#mask-2)">
                        <use fill-opacity="0.6" fill="#000000" xlink:href="#path-3"></use>
                        <use fill="#FFFFFF" xlink:href="#path-3"></use>
                    </g>
                </g>
            </g>
        </g>
    </g>
</svg>