<?xml version="1.0" encoding="UTF-8" standalone="no"?>
<svg width="22px" height="22px" viewBox="0 0 22 22" version="1.1" xmlns="http://www.w3.org/2000/svg" xmlns:xlink="http://www.w3.org/1999/xlink">
    <!-- Generator: sketchtool 41 (35326) - http://www.bohemiancoding.com/sketch -->
    <title>5F165E3E-C25E-454A-A35A-0C62408EAB66</title>
    <desc>Created with sketchtool.</desc>
    <defs>
        <rect id="path-1" x="0" y="0" width="24" height="24"></rect>
    </defs>
    <g id="Symbols" stroke="none" stroke-width="1" fill="none" fill-rule="evenodd">
        <g id="header-1280-path2" transform="translate(-940.000000, -21.000000)">
            <g id="3.noti" transform="translate(928.000000, 0.000000)">
                <g id="header_ic_noti" transform="translate(11.000000, 20.000000)">
                    <mask id="mask-2" fill="white">
                        <use xlink:href="#path-1"></use>
                    </mask>
                    <g id="Mask"></g>
                    <path d="M12,23 C18.0751322,23 23,18.0751322 23,12 C23,5.92486775 18.0751322,1 12,1 C5.92486775,1 1,5.92486775 1,12 C1,18.0751322 5.92486775,23 12,23 Z M11.78,20.8 C12.748,20.8 13.54,20.008 13.54,19.04 L10.02,19.04 C10.02,20.008 10.812,20.8 11.78,20.8 L11.78,20.8 Z M17.5,15.52 L17.5,10.68 C17.5,7.952 15.652,5.752 13.1,5.136 L13.1,4.52 C13.1,3.816 12.484,3.2 11.78,3.2 C11.076,3.2 10.46,3.816 10.46,4.52 L10.46,5.136 C7.908,5.752 6.06,7.952 6.06,10.68 L6.06,15.52 L4.3,17.28 L4.3,18.16 L19.26,18.16 L19.26,17.28 L17.5,15.52 L17.5,15.52 Z" fill="#FFFFFF" mask="url(#mask-2)"></path>
                </g>
            </g>
        </g>
    </g>
</svg>